<svg xmlns="http://www.w3.org/2000/svg" viewBox="0 0 11.2 8"><defs><style>.cls-1{fill:#fff;}</style></defs><title>inbox</title><g id="Layer_2" data-name="Layer 2"><g id="Layer_1-2" data-name="Layer 1"><path class="cls-1" d="M5.6,5.6,4.21,4.39l-4,3.39A.79.79,0,0,0,.8,8h9.59a.79.79,0,0,0,.55-.22L7,4.39Zm0,0"/><path class="cls-1" d="M10.94.22A.78.78,0,0,0,10.39,0H.8A.8.8,0,0,0,.25.22L5.6,4.8Zm0,0"/><path class="cls-1" d="M0,.7V7.35L3.87,4.06Zm0,0"/><path class="cls-1" d="M7.33,4.06,11.2,7.35V.7Zm0,0"/></g></g></svg>