<?xml version="1.0" encoding="utf-8"?>
<!-- Generator: Adobe Illustrator 21.0.0, SVG Export Plug-In . SVG Version: 6.00 Build 0)  -->
<svg version="1.1" id="Layer_1" xmlns="http://www.w3.org/2000/svg" xmlns:xlink="http://www.w3.org/1999/xlink" x="0px" y="0px"
	 viewBox="0 0 709 709" style="enable-background:new 0 0 709 709;" xml:space="preserve">
<style type="text/css">
	.st0{fill:#FFFFFF;}
	.st1{fill:#0C58A6;}
</style>
<g>
	<g>
		<path class="st0" d="M0.5,0.5h709v709H0.5V0.5z M59.5,59.5c0,157.9,0,315.8,0,473.6c195.8,0,391.6,0,587.4,0
			c0-157.9,0-315.7,0-473.6C451.1,59.5,255.3,59.5,59.5,59.5z M114.6,586.4c-18.1,0.5-36.2-0.3-54.3,0.4c1.1,0.9,2.2,1.8,3.2,2.8
			c0.5,1.9,0.3,3.9,0.4,5.8c-0.1,15.7,0.1,31.4-0.1,47.1c0.2,2.3-2.4,3-3.6,4.5c6.7,0.5,13.5,0.5,20.3,0c-1.1-1.5-3.8-2.3-3.5-4.6
			c-0.1-7.2,0-14.5,0-21.7c7.9,0,15.8,0,23.7,0c2.3-0.2,3.3,2.3,5,3.3c0.1-5.5,0.1-11,0-16.6c-1.7,1.2-2.8,3.7-5.1,3.5
			c-7.9,0-15.7,0-23.5,0c0-4.8,0-9.6,0-14.4c12.2,0,24.5,0,36.7,0c2.2-0.2,3,2.3,4.4,3.4c0.3-5.7,0.3-11.5,0-17.2
			C116.8,584,116,585.5,114.6,586.4z M643.6,586.5c-17.6,0.1-35.1-0.1-52.7,0.1c1.1,1.6,3.5,2.6,3.4,4.8c0.1,16.7,0,33.5,0,50.2
			c0.5,2.6-2.1,3.8-3.5,5.6c18.5,0.5,37.1,0,55.6,0.2c1.4,0.7,2,2.3,3.5,3c0.3-5.6,0.3-11.2,0-16.7c-1.5,1.1-2.3,3.7-4.5,3.4
			c-12.7,0-25.4,0-38,0c0-5.5,0-11,0-16.5c8,0,16.1-0.1,24.1,0c2.1,0.1,3,2.4,4.5,3.5c0.2-5.7,0.3-11.3-0.1-17
			c-1.2,1.1-2,2.7-3.3,3.6c-8.4,0.3-16.8,0-25.2,0.1c0-4.8,0-9.5,0-14.2c12.4,0,24.8,0,37.2,0c2.1-0.1,2.9,2.3,4.3,3.4
			c0.3-5.7,0.3-11.5,0-17.2C647.3,584.3,646.2,587,643.6,586.5z M511.4,588.4c-8.8,3.6-15.5,11.7-17.5,21
			c-1.6,7.8-0.8,16.3,3.3,23.3c4,7.3,11.4,12.4,19.5,14.3c6.8,1.6,14,1.8,20.8,0.5c6.6-1.2,12.3-4.9,18.1-8.1c1.5-1.1,3.5,0.1,5.2,0
			c-3-4.6-5.8-9.4-9.2-13.7c-0.7,1.8-0.5,4.2-2.3,5.5c-7.7,6-18.3,8.1-27.7,5.6c-6.9-1.8-12.8-7.5-14.5-14.5
			c-1.3-5.6-0.7-11.9,2.5-16.8c2.6-4.1,6.7-7.1,11.3-8.5c9.5-2.8,20.1-0.7,28,5.1c1.9,1.2,2,3.7,2.8,5.7c3.1-4.3,5.9-8.7,8.7-13.1
			c-1.2-1.4-3.3,0.8-4.7-0.3c-6.2-3.2-12.2-7.2-19.2-8.3C528.2,584.8,519.3,585.2,511.4,588.4z M147.5,586.8
			c1.4,1.4,3.9,2.5,3.5,4.9c0,16.9,0.1,33.9,0,50.8c0.3,2.3-2.4,3.1-3.6,4.6c6.7,0.6,13.6,0.6,20.3,0c-1.2-1.4-3.8-2.2-3.5-4.5
			c0-17,0-34.1,0-51.1c-0.5-2.3,2.1-3.2,3.4-4.6C160.9,586.3,154.1,586.3,147.5,586.8z M199,586.6c1.1,1.5,3.6,2.5,3.5,4.7
			c0,17.1,0.1,34.2,0,51.3c0,2.1-2.4,3-3.6,4.5c6.3,0.4,12.7,0.4,19,0c-1.1-1.2-2.4-2.2-3.4-3.5c-0.2-12.6,0-25.1-0.1-37.7
			c9.8,10.3,19.6,20.7,29.5,31.1c2.1,2.2,4.4,4.4,6,7.1c-0.7,0.7-2.2,2.1-2.9,2.8c6.7,0.7,13.6,0.6,20.3,0.1
			c-1.1-1.5-3.7-2.4-3.4-4.6c-0.1-17,0-33.9,0-50.9c-0.2-2.2,2.2-3.3,3.3-5c-6.2-0.1-12.4-0.2-18.5,0c1,1.6,3.5,2.6,3.3,4.8
			c0.1,11.8,0,23.7,0,35.5c-11-11.7-22-23.3-32.9-35.1c-2.2-1.9,0.1-3.7,1.4-5.2C213.3,586.4,206.1,586.4,199,586.6z M319.1,586.8
			c1.6,1.7,4.4,3.6,2.7,6.2c-7.5,16.4-15.2,32.6-22.8,48.9c-0.9,2.4-3.3,3.5-5.1,5.2c7.1,0.5,14.2,0.4,21.2,0
			c-1.2-1.2-2.6-2.4-3.7-3.7c1-4.1,3.3-7.7,4.9-11.6c9,0,18,0,26.9,0c1.6,3.6,3.7,7,4.9,10.8c0.5,2.3-2.6,2.9-3.6,4.3
			c7.8,0.6,15.7,0.5,23.5,0.1c-2.1-1.8-4.7-3.3-5.8-6c-7.8-16.3-15.8-32.4-23.5-48.7c-1.6-2.5,1.3-4.1,2.7-5.6
			C334,586.3,326.5,586.3,319.1,586.8z M393.9,586.6c1,1.6,3.5,2.6,3.3,4.8c0,17,0,34,0,51.1c0.1,2.2-2.3,3.1-3.3,4.7
			c6.4,0.2,12.8,0.4,19.1-0.2c-1.2-1.5-3.9-2.2-3.7-4.5c-0.1-12.2,0-24.5,0-36.7c9.5,10.1,19.1,20.2,28.7,30.3
			c2.5,2.6,5.1,5.1,7,8.1c-1,0.9-2,1.8-3,2.8c6.7,0.7,13.5,0.4,20.3,0.2c-1.1-1.6-3.5-2.5-3.3-4.7c0-17,0-34,0-51
			c-0.3-2.3,2.2-3.2,3.3-4.8c-6.4,0-12.8-0.6-19.1,0.4c1.2,0.8,2.4,1.7,3.6,2.5c0.2,12.5,0,25,0.1,37.5
			c-10.5-11.1-20.9-22.3-31.4-33.4c-1.1-1.2-2-2.5-2.7-3.9c0.9-0.9,1.9-1.8,2.8-2.7C408.3,586,401.1,586.6,393.9,586.6z"/>
	</g>
	<g>
		<path class="st0" d="M102.8,135.5c30.6,0,61.1,0,91.7,0c12.1,0,24.5,3.4,33.9,11.2c14.3,11.1,21.5,29.2,23,46.8
			c1.5,17.1,0.3,34.8-6.1,50.9c-6.6,16.9-20.2,31-37.1,37.9c-1.5,0.6-2.9,1.6-4.2,2.6c11.3,3.3,22.7,7.6,31.8,15.4
			c15.7,13.4,24.3,33.8,26.3,54.1c2.3,23.1,0.1,47.6-11.4,68.2c-10.4,19.4-30.7,34.1-53.1,34.6c-31.9,0-63.9,0-95.8,0
			c0-5.4,0-10.8,0-16.1c6.4-1.3,13.1-2,18.8-5.3c7.1-4.9,8.1-14.2,8.2-22.2c0-76.6,0-153.3,0-229.9c-0.2-7.1-0.3-14.8-4.5-20.8
			c-5.1-6.6-13.6-9.5-21.5-11.1C102.8,146.2,102.8,140.9,102.8,135.5z M158.6,154.4c0,41.1,0,82.2,0,123.3
			c7.3-0.1,14.5,0.2,21.8-0.1c10.2-0.6,20.1-5.8,25.8-14.4c8.9-13.2,11.3-29.5,11.8-45.1c0.5-15.6-0.2-32-7-46.3
			c-3.8-8.2-10.9-15-19.8-17.1C180.6,152.1,169.5,154.3,158.6,154.4z M158.6,297.2c0,38.1,0,76.2,0,114.3c0,6.2,1.3,12.7,4.9,17.9
			c3.4,4.9,9,8,14.8,9.1c9.8,1.8,20.7-0.1,28.6-6.6c9-7.3,13.8-18.3,16.8-29.2c3.7-14.1,4.6-28.8,4.5-43.3
			c-0.2-14.4-2.8-29.1-9.9-41.8c-5.5-10.3-15.2-18.7-26.9-20.6C180.6,295.4,169.5,296.6,158.6,297.2z"/>
	</g>
	<path class="st0" d="M322.8,135.5c51.8,0,103.7,0,155.5,0c0,26.8,0,53.7,0,80.5c-3.5,0-7,0-10.5,0c-2.9-16.5-8.8-32.4-16.7-47.1
		c-3.1-5.2-6.6-11.1-12.6-13.3c-6.5-1.7-13.2-1.8-19.9-2.1c-12.5-0.1-25.1,0-37.6,0c0,43,0,86,0,129c7.9,0,15.8,0,23.6,0
		c5.9-0.1,12.3-1,17-4.9c5-3.9,8.4-9.5,10.4-15.5c3.3-10.4,4.8-21.2,5.5-32c3.6,0,7.1,0,10.7,0c0,42.1,0,84.2,0,126.4
		c-3.6,0-7.1,0-10.7,0c-0.7-11.1-2.4-22.1-5.2-32.9c-1.8-6.8-4.9-13.7-10.8-18c-5.2-3.6-11.7-4.6-17.9-4.7c-7.6,0-15.1,0-22.6,0
		c0,37.5,0,75,0,112.6c0.2,7.8,1.9,17,9,21.5c5.9,3.1,12.4,4.7,18.9,6c0,5.4,0,10.7,0,16c-28.7,0-57.3,0-86,0c0-5.4,0-10.8,0-16.2
		c5.6-0.8,11.3-1.2,16.8-2.6c4.1-1,7.1-4.4,8.7-8.2c2.8-6.5,2.8-13.7,2.7-20.6c0-76,0-152,0-228c-0.3-7.1-0.7-15.2-6.2-20.4
		c-6-5.5-14.3-7.8-22.1-9.6C322.8,146.2,322.8,140.9,322.8,135.5z"/>
	<path class="st0" d="M528.4,135.5c29.8,0,59.6,0,89.4,0c0,5.4,0,10.7,0,16.1c-7.1,0.8-14.2,2.2-20.7,5.5c-3.4,1.6-5.9,4.7-7,8.3
		c-2.2,6.4-2,13.4-2,20.1c0,75.3,0,150.7,0,226.1c0.1,8.3,1.5,18.3,9.2,23.2c6.3,3.5,13.4,5.4,20.5,6.4c0,5.4,0,10.7,0,16.1
		c-29.8,0-59.6,0-89.4,0c0-5.4,0-10.8,0-16.2c6.9-1.2,14.2-0.8,20.6-3.9c7.2-4,9.1-12.9,9.1-20.5c0-78.7,0-157.4,0-236
		c-0.2-6.8-0.6-14.7-6.4-19.2c-6.8-5.1-15-8-23.3-9.7C528.4,146.2,528.4,140.9,528.4,135.5z"/>
	<path class="st0" d="M320.2,623.4c3.2-7.1,6.4-14.3,9.7-21.4c3.2,7.1,6.3,14.2,9.5,21.4C333,623.4,326.6,623.4,320.2,623.4z"/>
</g>
<g>
	<g>
		<path class="st1" d="M59.5,59.5c195.8,0,391.6,0,587.4,0c0,157.9,0,315.8,0,473.6c-195.8,0-391.6,0-587.4,0
			C59.5,375.2,59.5,217.4,59.5,59.5z M102.8,135.5c0,5.4,0,10.7,0,16.1c8,1.6,16.4,4.5,21.5,11.1c4.2,6,4.3,13.8,4.5,20.8
			c0,76.7,0,153.3,0,229.9c-0.1,7.9-1.1,17.3-8.2,22.2c-5.7,3.4-12.5,4-18.8,5.3c0,5.4,0,10.8,0,16.1c31.9,0,63.9,0,95.8,0
			c22.4-0.5,42.7-15.2,53.1-34.6c11.5-20.6,13.7-45.1,11.4-68.2c-2-20.3-10.6-40.7-26.3-54.1c-9-7.8-20.4-12.1-31.8-15.4
			c1.3-1,2.7-2,4.2-2.6c16.9-6.9,30.4-21,37.1-37.9c6.4-16.1,7.6-33.8,6.1-50.9c-1.6-17.6-8.8-35.7-23-46.8
			c-9.4-7.8-21.8-11.2-33.9-11.2C163.9,135.5,133.3,135.5,102.8,135.5z M322.8,135.5c0,5.4,0,10.7,0,16.1c7.8,1.8,16,4,22.1,9.6
			c5.5,5.2,5.9,13.3,6.2,20.4c0,76,0,152,0,228c0,6.9,0.1,14.2-2.7,20.6c-1.6,3.8-4.6,7.2-8.7,8.2c-5.5,1.4-11.2,1.9-16.8,2.6
			c0,5.4,0,10.8,0,16.2c28.7,0,57.3,0,86,0c0-5.4,0-10.7,0-16c-6.5-1.2-13-2.9-18.9-6c-7.1-4.6-8.8-13.7-9-21.5c0-37.5,0-75,0-112.6
			c7.5,0,15.1,0,22.6,0c6.2,0.1,12.7,1.1,17.9,4.7c5.9,4.2,9,11.2,10.8,18c2.8,10.8,4.6,21.8,5.2,32.9c3.6,0,7.1,0,10.7,0
			c0-42.1,0-84.2,0-126.4c-3.6,0-7.1,0-10.7,0c-0.8,10.8-2.2,21.7-5.5,32c-1.9,6-5.4,11.6-10.4,15.5c-4.8,3.8-11.1,4.8-17,4.9
			c-7.9,0-15.8,0-23.6,0c0-43,0-86,0-129c12.6,0,25.1,0,37.6,0c6.7,0.2,13.4,0.4,19.9,2.1c6,2.3,9.5,8.1,12.6,13.3
			c7.9,14.7,13.8,30.6,16.7,47.1c3.5,0,7,0,10.5,0c0-26.8,0-53.7,0-80.5C426.4,135.5,374.6,135.5,322.8,135.5z M528.4,135.5
			c0,5.4,0,10.7,0,16.1c8.3,1.7,16.5,4.6,23.3,9.7c5.8,4.5,6.3,12.5,6.4,19.2c0,78.7,0,157.4,0,236c0,7.6-1.9,16.5-9.1,20.5
			c-6.4,3.1-13.8,2.7-20.6,3.9c-0.1,5.4,0,10.8,0,16.2c29.8,0,59.6,0,89.4,0c0-5.4,0-10.7,0-16.1c-7.1-1-14.2-2.9-20.5-6.4
			c-7.7-4.9-9.1-14.9-9.2-23.2c0-75.4,0-150.7,0-226.1c0-6.7-0.1-13.6,2-20.1c1.1-3.6,3.7-6.7,7-8.3c6.4-3.2,13.6-4.7,20.7-5.5
			c0-5.4,0-10.7,0-16.1C588,135.5,558.2,135.5,528.4,135.5z"/>
	</g>
	<path class="st1" d="M158.6,154.4c10.9-0.1,21.9-2.3,32.7,0.3c8.9,2.1,16,8.9,19.8,17.1c6.9,14.3,7.6,30.7,7,46.3
		c-0.5,15.6-2.9,31.9-11.8,45.1c-5.7,8.6-15.7,13.8-25.8,14.4c-7.3,0.3-14.5,0-21.8,0.1C158.6,236.6,158.6,195.5,158.6,154.4z"/>
	<path class="st1" d="M158.6,297.2c10.9-0.6,22-1.8,32.8-0.1c11.7,2,21.4,10.3,26.9,20.6c7.1,12.7,9.7,27.4,9.9,41.8
		c0.1,14.5-0.8,29.2-4.5,43.3c-2.9,10.9-7.8,21.9-16.8,29.2c-7.9,6.5-18.7,8.4-28.6,6.6c-5.8-1.1-11.4-4.2-14.8-9.1
		c-3.7-5.2-4.9-11.7-4.9-17.9C158.6,373.4,158.6,335.3,158.6,297.2z"/>
</g>
<g>
	<path d="M114.6,586.4c1.4-0.9,2.3-2.4,3.5-3.5c0.3,5.7,0.3,11.5,0,17.2c-1.5-1.2-2.3-3.6-4.4-3.4c-12.2,0-24.5,0-36.7,0
		c0,4.8,0,9.6,0,14.4c7.8,0,15.7,0,23.5,0c2.3,0.2,3.5-2.3,5.1-3.5c0.1,5.5,0.1,11,0,16.6c-1.7-1.1-2.7-3.6-5-3.3
		c-7.9-0.1-15.8,0-23.7,0c0,7.2-0.1,14.5,0,21.7c-0.3,2.3,2.4,3.1,3.5,4.6c-6.7,0.5-13.5,0.5-20.3,0c1.2-1.5,3.8-2.2,3.6-4.5
		c0.2-15.7,0-31.4,0.1-47.1c-0.1-2,0.1-4-0.4-5.8c-1-1-2.1-1.9-3.2-2.8C78.3,586,96.5,586.8,114.6,586.4z"/>
	<path d="M643.6,586.5c2.6,0.5,3.7-2.2,5.3-3.6c0.3,5.7,0.3,11.5,0,17.2c-1.5-1.1-2.3-3.5-4.3-3.4c-12.4-0.1-24.8,0-37.2,0
		c0,4.7,0,9.5,0,14.2c8.4-0.1,16.8,0.2,25.2-0.1c1.4-1,2.1-2.5,3.3-3.6c0.4,5.6,0.3,11.3,0.1,17c-1.5-1.1-2.4-3.4-4.5-3.5
		c-8-0.1-16.1,0-24.1,0c0,5.5,0,11,0,16.5c12.7,0,25.3,0,38,0c2.2,0.3,3-2.3,4.5-3.4c0.3,5.6,0.3,11.2,0,16.7
		c-1.4-0.7-2.1-2.2-3.5-3c-18.5-0.3-37.1,0.2-55.6-0.2c1.4-1.8,4-3,3.5-5.6c0-16.7,0.1-33.5,0-50.2c0.1-2.2-2.3-3.2-3.4-4.8
		C608.5,586.4,626,586.6,643.6,586.5z"/>
	<path d="M511.4,588.4c7.9-3.3,16.8-3.6,25.2-2.4c7,1.1,13,5.1,19.2,8.3c1.4,1.1,3.5-1.1,4.7,0.3c-2.8,4.4-5.6,8.9-8.7,13.1
		c-0.8-1.9-0.9-4.4-2.8-5.7c-7.9-5.8-18.6-8-28-5.1c-4.6,1.4-8.7,4.4-11.3,8.5c-3.2,4.9-3.8,11.2-2.5,16.8c1.7,7,7.5,12.7,14.5,14.5
		c9.4,2.5,20,0.4,27.7-5.6c1.8-1.2,1.6-3.6,2.3-5.5c3.4,4.3,6.2,9.1,9.2,13.7c-1.7,0-3.6-1.2-5.2,0c-5.8,3.2-11.5,6.8-18.1,8.1
		c-6.9,1.3-14,1.1-20.8-0.5c-8.1-2-15.5-7-19.5-14.3c-4.1-7-4.9-15.5-3.3-23.3C495.8,600.1,502.6,592,511.4,588.4z"/>
	<path d="M147.5,586.8c6.6-0.5,13.4-0.5,20,0c-1.2,1.4-3.8,2.3-3.4,4.6c0,17,0,34.1,0,51.1c-0.3,2.2,2.3,3.1,3.5,4.5
		c-6.7,0.6-13.6,0.6-20.3,0c1.2-1.5,3.9-2.3,3.6-4.6c0.1-16.9,0-33.9,0-50.8C151.4,589.2,148.9,588.2,147.5,586.8z"/>
	<path d="M199,586.6c7.1-0.2,14.3-0.2,21.5,0c-1.3,1.5-3.5,3.4-1.4,5.2c10.9,11.8,21.9,23.4,32.9,35.1c0-11.8,0-23.7,0-35.5
		c0.2-2.2-2.2-3.2-3.3-4.8c6.2-0.2,12.4-0.1,18.5,0c-1.1,1.6-3.5,2.7-3.3,5c0,16.9,0,33.9,0,50.9c-0.3,2.3,2.3,3.1,3.4,4.6
		c-6.8,0.5-13.6,0.6-20.3-0.1c0.7-0.7,2.2-2.1,2.9-2.8c-1.6-2.7-3.9-4.9-6-7.1c-9.8-10.4-19.6-20.8-29.5-31.1
		c0,12.6-0.1,25.1,0.1,37.7c0.9,1.3,2.3,2.3,3.4,3.5c-6.3,0.4-12.7,0.4-19,0c1.1-1.5,3.6-2.4,3.6-4.5c0.1-17.1,0-34.2,0-51.3
		C202.6,589.1,200.1,588.2,199,586.6z"/>
	<g>
		<path d="M319.1,586.8c7.4-0.4,14.9-0.4,22.4,0c-1.4,1.5-4.3,3.2-2.7,5.6c7.7,16.3,15.7,32.5,23.5,48.7c1.1,2.7,3.7,4.2,5.8,6
			c-7.8,0.4-15.7,0.6-23.5-0.1c1-1.5,4.1-2.1,3.6-4.3c-1.1-3.8-3.3-7.2-4.9-10.8c-9,0-18,0-26.9,0c-1.6,3.9-3.9,7.5-4.9,11.6
			c1.1,1.3,2.5,2.4,3.7,3.7c-7.1,0.3-14.2,0.4-21.2,0c1.8-1.7,4.2-2.8,5.1-5.2c7.6-16.3,15.4-32.6,22.8-48.9
			C323.4,590.3,320.7,588.4,319.1,586.8z M320.2,623.4c6.4,0,12.8,0,19.2,0c-3.2-7.1-6.4-14.2-9.5-21.4
			C326.7,609.1,323.5,616.2,320.2,623.4z"/>
	</g>
	<path d="M393.9,586.6c7.1,0,14.4-0.6,21.5,0.3c-0.9,0.9-1.9,1.8-2.8,2.7c0.8,1.4,1.6,2.8,2.7,3.9c10.5,11.1,21,22.2,31.4,33.4
		c0-12.5,0.1-25-0.1-37.5c-1.2-0.8-2.4-1.6-3.6-2.5c6.3-1,12.7-0.4,19.1-0.4c-1.1,1.6-3.6,2.6-3.3,4.8c0,17,0,34,0,51
		c-0.2,2.2,2.2,3.1,3.3,4.7c-6.8,0.1-13.6,0.5-20.3-0.2c1-0.9,2-1.8,3-2.8c-1.9-3.1-4.5-5.5-7-8.1c-9.6-10.1-19.1-20.2-28.7-30.3
		c0,12.2-0.1,24.5,0,36.7c-0.2,2.3,2.5,3,3.7,4.5c-6.3,0.6-12.7,0.4-19.1,0.2c1-1.6,3.4-2.5,3.3-4.7c0-17,0-34.1,0-51.1
		C397.5,589.2,395,588.2,393.9,586.6z"/>
</g>
</svg>
