<svg id="Layer_1" data-name="Layer 1" xmlns="http://www.w3.org/2000/svg" viewBox="0 0 278.51 228.65"><defs><style>.cls-1{fill:#0e73ad;fill-rule:evenodd;}</style></defs><title>new-lokasi-rumah</title><path class="cls-1" d="M220,317.45c-22,0-44.07-.21-66.1.12-6.53.1-8.48-2.16-8.44-8.5q.31-62.58,0-125.16c0-5.19,1-7.71,7.07-7a17.07,17.07,0,0,0,13.53-4.88c3.11-2.9,5.44-3,9-.31,10.16,7.53,18.68,7.14,28.67-1.15,2.94-2.44,4.89-2.44,7.92-.42,9.06,6,18.1,5.85,26.49-1.35,2.85-2.45,4.83-2.36,7.85-.09,10.11,7.59,17.18,7.8,27.58.64,3.23-2.23,5.06-1.62,7.94.34,9.69,6.58,17,6.51,26.48-.41,3.17-2.3,5.06-1.81,7.95.27,9,6.52,16.87,6.74,25.91.27,3.62-2.59,5.61-2.34,8.94.39,9.57,7.86,19.4,8,28.7.05,3.69-3.13,6-3,9.52-.21a16.26,16.26,0,0,0,8.23,3.66c6.51.46,7.81,3.79,7.79,9.63-.19,41.72-.25,83.44,0,125.16,0,7.26-2.4,9.67-9.37,9a76.71,76.71,0,0,0-14.75,0c-7,.68-9.36-1.78-9.27-9,.36-31.4.16-62.82.15-94.22,0-9.5,0-9.51-9.79-9.52q-29.18,0-58.36,0c-9.83,0-9.84,0-9.84,10.2q0,46.41,0,92.82c0,9.6-.05,9.62-9.89,9.63Q252,317.47,220,317.45Zm-2.45-59.69c11.71,0,23.44-.12,35.15.06,4.69.07,6.79-1.46,6.71-6.47q-.34-20,0-40.07c.09-4.91-1.73-6.57-6.56-6.54q-35.16.23-70.31,0c-4.69,0-6.79,1.33-6.7,6.39.25,13.35.23,26.72,0,40.07-.08,4.88,1.72,6.69,6.56,6.62C194.12,257.63,205.84,257.75,217.56,257.76Z" transform="translate(-137.43 -89)"/><path class="cls-1" d="M276.4,89.14c36.55,0,73.09.16,109.64-.14,7.17-.06,11.1,2.1,13.46,9.08a335.48,335.48,0,0,0,12.74,32c3.58,7.82,4,15.8,3.53,24-.45,7.79-7.44,14.09-14.94,13.77-7.81-.33-13.5-6.5-13.59-14.76,0-3.75,0-7.5,0-11.25,0-2.28-.51-4.3-3.35-4.42-3.23-.14-3.85,2-3.87,4.61,0,4.45.08,8.91-.08,13.35a14.82,14.82,0,0,1-14.65,14.08,14.49,14.49,0,0,1-14.4-14.06c-.08-4,0-8-.07-11.95,0-2.2-.24-4.49-3.2-4.42s-3,2.43-3.1,4.59c-.08,2.81,0,5.62-.09,8.43-.27,8.79-7.44,16-15.53,15.79s-14.31-7-14.41-15.75c0-2.81.1-5.62-.05-8.43-.13-2.41.73-5.93-3-6-4.4-.08-3.15,3.82-3.28,6.37-.2,3.74,0,7.49-.09,11.24a13,13,0,0,1-13.27,12.52c-7.35,0-14-5.85-14.25-12.66-.17-4.68-.06-9.37-.13-14.05,0-1.76-.58-3.31-2.66-3.49-2.39-.22-3.49,1.25-3.57,3.37-.19,4.44-.1,8.9-.26,13.34-.29,7.74-5.78,13.33-13.2,13.58s-14.8-6.31-15.11-13.61c-.17-4,0-8-.11-11.94,0-2.12,0-4.59-3-4.7-3.48-.14-3.28,2.65-3.34,5-.08,3,0,6.09,0,9.13-.16,9-6.87,16.15-15.08,16.15s-14.55-6.92-14.75-16.25c-.07-3,0-6.09-.09-9.14-.09-2.4-.3-5-3.62-4.87-3,.14-2.85,2.61-2.88,4.73-.05,4.92.05,9.84-.06,14.76-.18,7.49-5.86,13-13.49,13.18-7.23.18-15-6-15.4-12.65-.33-5.13-.09-10.3-.16-15.46,0-2.16-.11-4.55-3.06-4.58s-3.19,2.27-3.22,4.47c-.06,4.68,0,9.37-.09,14.05a14.47,14.47,0,0,1-14.38,14.19c-7.23.12-14.83-6.56-15.19-13.78-.5-10.31-.35-20.46,4.15-30.27a267.25,267.25,0,0,0,11.08-28.83c2.14-6.55,6-8.38,12.49-8.34C202.38,89.26,239.39,89.14,276.4,89.14Z" transform="translate(-137.43 -89)"/></svg>