<svg id="Layer_1" data-name="Layer 1" xmlns="http://www.w3.org/2000/svg" viewBox="0 0 59.61 50.22"><defs><style>.cls-1{fill:#a6a6a6;}</style></defs><title>new-home</title><path class="cls-1" d="M220,256.06v-2l.67-.64L249.12,225c.62-.62.62-.62,1.25,0l9.91,9.9a1,1,0,0,0,.56.41v-.64q0-3.81,0-7.62c0-.78,0-.78.76-.78h5.93c.84,0,.84,0,.84.82,0,5,0,10,0,15.06a1.82,1.82,0,0,0,.58,1.43c3.25,3.22,6.46,6.48,9.73,9.68a2.54,2.54,0,0,1,.89,2.18c0,.52-.17.7-.71.7-1.94,0-3.87,0-5.81,0-.94,0-.94,0-.94,1q0,8.43,0,16.86c0,.77,0,.77-.77.77H254.18c-.77,0-.77,0-.77-.78q0-4.8,0-9.59c0-.78,0-.79-.77-.79H247c-.94,0-.94,0-.94.91q0,4.71,0,9.42c0,.83,0,.83-.83.83h-17c-.82,0-.83,0-.83-.84q0-8.2,0-16.4c0-1.55.18-1.35-1.35-1.37C224,256.08,222,256.16,220,256.06Z" transform="translate(-219.96 -224.49)"/></svg>