<svg id="Layer_1" data-name="Layer 1" xmlns="http://www.w3.org/2000/svg" viewBox="0 0 45.77 39.32"><defs><style>.cls-1{fill:#fff;fill-rule:evenodd;}</style></defs><title>new-sidemenu-kontrak</title><path class="cls-1" d="M7193.17,7208c-1.51,0-2.7,0-3.9,0a2.24,2.24,0,0,1-1.77-.71,11.53,11.53,0,0,1-3.16-7.39,21.11,21.11,0,0,1,.21-5.17,2.45,2.45,0,0,1,1.24-1.85c4.19-2.62,8.3-5.35,12.25-8.32a37.9,37.9,0,0,0,4.66-4,2.05,2.05,0,0,1,2.18-.45,6.78,6.78,0,0,1,3.91,3.09,28,28,0,0,1,3.35,22.27,11.7,11.7,0,0,1-.67,1.86c-.66,1.45-1.24,1.69-2.83,1.56-3.07-.27-6.14-.5-9.21-.68C7197.25,7208.1,7195.05,7207.92,7193.17,7208Zm18-9.38a23.51,23.51,0,0,0-1.39-8.86,17.07,17.07,0,0,0-4.65-7.1c-.83-.74-1.43-.62-1.9.4a7.43,7.43,0,0,0-.5,1.81,32.65,32.65,0,0,0,2.1,16.78,15.09,15.09,0,0,0,2.78,4.56c.46.44.94.88,1.65.66a1.85,1.85,0,0,0,1.3-1.59A32,32,0,0,0,7211.13,7198.62Z" transform="translate(-7175.82 -7179.99)"/><path class="cls-1" d="M7175.82,7201.76a10.94,10.94,0,0,1,1.3-4.66,1.34,1.34,0,0,1,.76-.66c1.45-.52,2.9-1,4.34-1.58.61-.23.87-.17.74.59a15.55,15.55,0,0,0,2.36,11.89c.2.29.45.58-.18.72-.43.09-.21.47-.14.71a14,14,0,0,0,1.09,2.5,31.22,31.22,0,0,1,2.34,6.16c.22.88-.13,1.28-.9,1.54a7.78,7.78,0,0,1-4,.13c-.6-.11-.67-.54-.73-1a30.13,30.13,0,0,0-1.92-7.95c-.27-.66-.57-1.26-1.44-1.25a1.15,1.15,0,0,1-.79-.47A9.79,9.79,0,0,1,7175.82,7201.76Z" transform="translate(-7175.82 -7179.99)"/><path class="cls-1" d="M7215.6,7191.41c-.39-.08-1,.21-1.09-.52s.12-1,.78-1.23c1.58-.51,3.14-1.08,4.7-1.67.65-.25.94-.12,1.13.59.59,2.24.62,2.25-1.65,2.51C7218.2,7191.24,7216.91,7191.31,7215.6,7191.41Z" transform="translate(-7175.82 -7179.99)"/><path class="cls-1" d="M7216.72,7197.19c1.35.12,2.79.26,4.23.35.55,0,.67.27.64.78-.15,2.51-.22,2.57-2.49,1.54-1-.47-2-1-3.05-1.48-.35-.18-.85-.3-.73-.84s.67-.29,1-.35A2.48,2.48,0,0,1,7216.72,7197.19Z" transform="translate(-7175.82 -7179.99)"/><path class="cls-1" d="M7213.68,7184.4a.5.5,0,0,1-.52-.32.47.47,0,0,1,.15-.66l4.8-3.34c.17-.12.39-.15.51,0,.35.59.69,1.19,1,1.82.14.3-.16.45-.39.54l-5.33,1.89A1.1,1.1,0,0,1,7213.68,7184.4Z" transform="translate(-7175.82 -7179.99)"/><path class="cls-1" d="M7208.13,7196a4.7,4.7,0,0,1-1.37,3.15c-.47.44-.83.49-1.13-.2a21.88,21.88,0,0,1-1.52-6.76c-.05-.53.16-.73.73-.6A4.21,4.21,0,0,1,7208.13,7196Z" transform="translate(-7175.82 -7179.99)"/></svg>