<?xml version="1.0" encoding="utf-8"?>
<!-- Generator: Adobe Illustrator 21.0.0, SVG Export Plug-In . SVG Version: 6.00 Build 0)  -->
<svg version="1.1" id="Layer_1" xmlns="http://www.w3.org/2000/svg" xmlns:xlink="http://www.w3.org/1999/xlink" x="0px" y="0px"
	 viewBox="0 0 500 500" style="enable-background:new 0 0 500 500;" xml:space="preserve">
<style type="text/css">
	.st0{fill-rule:evenodd;clip-rule:evenodd;fill:#0C589E;}
	.st1{fill-rule:evenodd;clip-rule:evenodd;fill:#FFFFFF;}
</style>
<g>
	<g>
		<path class="st0" d="M312,288c0,13.8-11.2,25-25,25h-75c-13.8,0-25-11.2-25-25v-75c0-13.8,11.2-25,25-25h75c13.8,0,25,11.2,25,25
			V288z"/>
	</g>
	<g>
		<path class="st1" d="M250.2,253.5c1.2,0.4,2.3,0.8,3.5,1c1.8,0.3,3.4,1.1,4.9,2c3.9,2.2,8.1,2.5,12.5,2c2.1-0.2,4.3-0.4,6.4-1
			c2.5-0.7,4.5-2.1,6.2-4c1.8-2,4-3.5,6.8-3.9c1.4-0.2,2.7,0.2,3.7,1.2c1.1,1.1,1.2,2.4,0.3,3.7c-0.2,0.3-0.4,0.5-0.2,0.9
			c0.9,1.9,0.2,3.6-1.1,5c-1.3,1.5-2.9,2.8-4.5,4.1c-1.9,1.5-3.8,2.9-5.7,4.4c-2.2,1.7-4.6,2.7-7.4,3.1c-4.6,0.6-9.1,1.6-13.6,2.4
			c-1.5,0.3-3.1,0.4-4.7,0.6c-2.2,0.3-4.2-0.7-6.1-1.6c-4.8-2.4-9.5-5.1-14.1-7.8c-1.9-1.1-3.8-2.1-5.7-3.2
			c-2.2-1.2-4.4-2.1-6.9-2.3c-1.3-0.1-1.6-0.7-1.5-2c0.3-3.2,0.5-6.4,0.8-9.6c0.3-3.2,0.5-6.4,0.8-9.5c0.1-1,0.5-1.5,1.4-1.9
			c4.1-1.6,8.3-2.6,12.7-2.9c5.5-0.3,10.6,1.3,15.3,4.1c0.4,0.2,0.8,0.5,1.2,0.7c2.2,1.6,4.8,2,7.5,2.2c4.7,0.3,9.3,1,13.7,2.8
			c3,1.2,4.1,3.6,3.3,6.7c-0.2,0.8-0.6,1.6-1,2.3c-1.1,1.7-2.6,2.3-4.6,1.9c-4.6-0.9-9.2-1.7-13.8-2.3c-1.1-0.2-2.2-0.1-3.3,0.1
			C254.8,253.4,252.5,253.5,250.2,253.5z"/>
		<path class="st1" d="M209.8,259c0.1-8.4,0.7-16.8,2.5-25c0.3-1.5,0.6-1.7,2.1-1.7c2.1,0.1,4.1,0.1,6.2,0.2
			c1.7,0.1,2.1,0.6,1.9,2.3c-0.7,4.9-1.4,9.8-1.9,14.8c-0.2,2.4-0.5,4.8-0.6,7.2c-0.1,2.2-0.3,4.4-0.1,6.6c0.2,1.3-0.4,1.8-1.7,1.8
			c-2.4-0.1-4.8-0.2-7.2-0.4c-0.8-0.1-1.3-0.6-1.3-1.4C209.8,262,209.8,260.5,209.8,259z"/>
	</g>
</g>
</svg>
