<svg id="Layer_1" data-name="Layer 1" xmlns="http://www.w3.org/2000/svg" viewBox="0 0 125 125"><defs><style>.cls-1{fill:#0c589e;}.cls-2{fill:#fff;fill-rule:evenodd;}</style></defs><title>berita-promo</title><rect class="cls-1" width="125" height="125" rx="25" ry="25"/><path class="cls-2" d="M7192,7217.07c-2.67,0-4.79,0-6.9,0a4,4,0,0,1-3.13-1.27c-3.58-3.63-5.16-8.15-5.59-13.09a37.34,37.34,0,0,1,.37-9.16,4.34,4.34,0,0,1,2.2-3.27c7.41-4.63,14.69-9.48,21.68-14.73a67.22,67.22,0,0,0,8.26-7c1.14-1.18,2.47-1.14,3.86-.79,3.13.77,5.2,3,6.92,5.47,4.08,6,6.08,12.71,7.2,19.76a47.05,47.05,0,0,1-1.26,19.67,20.58,20.58,0,0,1-1.19,3.29c-1.17,2.56-2.2,3-5,2.76-5.43-.47-10.86-.88-16.3-1.21C7199.26,7217.26,7195.37,7216.94,7192,7217.07Zm31.81-16.61a41.62,41.62,0,0,0-2.46-15.68,30.23,30.23,0,0,0-8.23-12.57c-1.47-1.3-2.53-1.09-3.36.71a13.15,13.15,0,0,0-.89,3.2,47.93,47.93,0,0,0-.38,12.29c.47,6,1.45,11.91,4.09,17.41,1.37,2.86,2.59,5.8,4.92,8.07.81.79,1.67,1.56,2.92,1.18a3.27,3.27,0,0,0,2.3-2.81A56.64,56.64,0,0,0,7223.84,7200.46Z" transform="translate(-7136.28 -7137.5)"/><path class="cls-2" d="M7161.32,7206a19.35,19.35,0,0,1,2.31-8.25,2.36,2.36,0,0,1,1.35-1.17c2.57-.92,5.13-1.84,7.69-2.8,1.09-.41,1.54-.3,1.31,1-1.25,7.53-.27,14.63,4.17,21,.36.52.79,1-.33,1.27-.76.16-.36.84-.25,1.25a24.71,24.71,0,0,0,1.93,4.43,55.27,55.27,0,0,1,4.14,10.9c.39,1.56-.23,2.27-1.6,2.73a13.77,13.77,0,0,1-7.09.23c-1.07-.2-1.18-1-1.29-1.85a53.33,53.33,0,0,0-3.4-14.07c-.49-1.17-1-2.22-2.56-2.21a2,2,0,0,1-1.41-.83A17.33,17.33,0,0,1,7161.32,7206Z" transform="translate(-7136.28 -7137.5)"/><path class="cls-2" d="M7231.75,7187.71c-.69-.13-1.69.38-1.93-.92s.21-1.8,1.39-2.18c2.8-.91,5.57-1.91,8.32-3,1.16-.44,1.67-.2,2,1,1,4,1.09,4-2.91,4.45C7236.35,7187.4,7234.07,7187.52,7231.75,7187.71Z" transform="translate(-7136.28 -7137.5)"/><path class="cls-2" d="M7233.74,7197.94c2.39.2,4.94.46,7.49.62,1,.06,1.18.48,1.13,1.38-.26,4.45-.39,4.56-4.4,2.73-1.82-.83-3.61-1.73-5.41-2.62-.62-.31-1.51-.54-1.29-1.48s1.18-.51,1.83-.62A4.25,4.25,0,0,1,7233.74,7197.94Z" transform="translate(-7136.28 -7137.5)"/><path class="cls-2" d="M7228.34,7175.3a.89.89,0,0,1-.92-.57.83.83,0,0,1,.26-1.17q4.24-3,8.49-5.91c.3-.21.7-.27.89.07.62,1.05,1.22,2.12,1.73,3.22.25.53-.28.8-.7,1-3.14,1.13-6.29,2.24-9.43,3.35A2,2,0,0,1,7228.34,7175.3Z" transform="translate(-7136.28 -7137.5)"/><path class="cls-2" d="M7218.52,7195.76a8.32,8.32,0,0,1-2.43,5.58c-.82.79-1.46.87-2-.35a38.74,38.74,0,0,1-2.69-12c-.09-.93.29-1.29,1.3-1.06C7216.21,7188.75,7218.54,7191.66,7218.52,7195.76Z" transform="translate(-7136.28 -7137.5)"/></svg>