<svg id="Layer_1" data-name="Layer 1" xmlns="http://www.w3.org/2000/svg" viewBox="0 0 37.99 56.06"><defs><style>.cls-1{fill:#a6a6a6;fill-rule:evenodd;}</style></defs><title>new-simulation</title><path class="cls-1" d="M249.72,260.72c0,7.22,0,14.44,0,21.66a6.63,6.63,0,0,1-6.28,6.39q-12.7.07-25.41,0a6.42,6.42,0,0,1-6.3-6.4q0-21.67,0-43.33a6.51,6.51,0,0,1,6.16-6.27q12.81,0,25.62,0a6.59,6.59,0,0,1,6.21,6.29C249.68,246.28,249.72,253.5,249.72,260.72Zm-19-12.72H240c1,0,2,0,3,0s1.58-.54,1.58-1.42c0-2.3,0-4.61,0-6.91a1.41,1.41,0,0,0-.87-1.33,2.44,2.44,0,0,0-1.17-.18H219c-.16,0-.33,0-.49,0a1.49,1.49,0,0,0-1.57,1.68q0,3.14,0,6.28c0,1.44.45,1.89,1.9,1.89Zm10.41,14.27a3.16,3.16,0,0,0,3.35-3.06,3.2,3.2,0,0,0-3.28-3.45,3.26,3.26,0,1,0-.08,6.52Zm0,20.75a3.14,3.14,0,0,0,3.34-3,3.32,3.32,0,0,0-3.28-3.55,3.26,3.26,0,0,0-3.34,3.17A3.2,3.2,0,0,0,241.15,283Zm-20.89-20.75c1.76.32,3.42-1.67,3.38-3.1a3.48,3.48,0,0,0-3.28-3.44A3.32,3.32,0,0,0,217,259C217,260.81,218.6,262.53,220.25,262.27Zm20.91,10.43a3.31,3.31,0,1,0-3.27-3.4A3.27,3.27,0,0,0,241.16,272.7Zm-10.45-10.43a3.09,3.09,0,0,0,3.3-3.15,3.15,3.15,0,0,0-3.33-3.36,3.24,3.24,0,0,0-3.26,3.24C227.35,260.54,228.9,262.49,230.71,262.27Zm-10.4,10.43a3.29,3.29,0,0,0,3.3-3.17,3.31,3.31,0,1,0-6.62-.22A3.36,3.36,0,0,0,220.31,272.7ZM230.69,283a3.08,3.08,0,0,0,3.34-3.13,3.22,3.22,0,0,0-3.28-3.4,3.4,3.4,0,0,0-3.34,3.29C227.35,281.21,228.81,283.23,230.69,283Zm3.24-13.61a3.11,3.11,0,0,0-3.22-3.32,3.3,3.3,0,1,0,.09,6.61A3,3,0,0,0,233.93,269.41ZM220.31,283a3.22,3.22,0,0,0,3.31-3.1,3.5,3.5,0,0,0-3.29-3.44,3.4,3.4,0,0,0-3.34,3.21A3.22,3.22,0,0,0,220.31,283Z" transform="translate(-211.75 -232.75)"/></svg>