<svg id="Layer_1" data-name="Layer 1" xmlns="http://www.w3.org/2000/svg" viewBox="0 0 29.84 43.06"><defs><style>.cls-1{fill:#c9c9c9;fill-rule:evenodd;}</style></defs><title>new-icon-lock</title><path class="cls-1" d="M611.76,594.58v-5.53A11,11,0,0,0,600.69,578a11.28,11.28,0,0,0-11.38,11.06v5.53a3.82,3.82,0,0,0-3.7,4v18.77a3.75,3.75,0,0,0,3.7,3.69h22.44a3.75,3.75,0,0,0,3.7-3.69V598.59a3.82,3.82,0,0,0-3.7-4ZM593,589.06a7.54,7.54,0,0,1,15.08,0v5.53H593Zm18.76,28.3H589.32V598.59h22.44ZM598.85,609v2.45a1.63,1.63,0,0,0,1.84,1.85,1.78,1.78,0,0,0,1.85-1.85V609a4.08,4.08,0,0,0,1.85-3.08,3.74,3.74,0,0,0-3.69-3.69A3.55,3.55,0,0,0,597,606a3.38,3.38,0,0,0,1.85,3.08Z" transform="translate(-585.62 -577.99)"/></svg>