<svg id="Layer_1" data-name="Layer 1" xmlns="http://www.w3.org/2000/svg" viewBox="0 0 125 125"><defs><style>.cls-1{fill:#0c589e;}.cls-2{fill:#fff;fill-rule:evenodd;}</style></defs><title>new-uber-milyaran</title><rect class="cls-1" width="125" height="125" rx="25" ry="25"/><path class="cls-2" d="M7225.83,7214q0,8,0,15.91c0,1.12,0,1.13-1.11,1.13h-20.66c-1.12,0-1.13,0-1.13-1.11q0-15.75,0-31.51c0-.11,0-.21,0-.32,0-1.07,0-1.09,1.08-1.09h20.66c1.17,0,1.17,0,1.17,1.15Q7225.83,7206,7225.83,7214Z" transform="translate(-7136.5 -7137.5)"/><path class="cls-2" d="M7172.84,7214q0-7.92,0-15.83c0-1.14,0-1.14,1.17-1.14h20.49c1,0,1.06,0,1.06,1q0,16,0,32c0,.83-.29,1-1.08,1q-10.33,0-20.65,0c-.85,0-1-.3-1-1.08C7172.86,7224.62,7172.84,7219.29,7172.84,7214Z" transform="translate(-7136.5 -7137.5)"/><path class="cls-2" d="M7216.18,7194.17h-12.05c-1.16,0-1.19,0-1.19-1.14,0-2.62,0-5.25,0-7.87,0-.74.19-1,1-1q12.34,0,24.67,0c.71,0,.93.25.92.94,0,2.7,0,5.41,0,8.12,0,.78-.28,1-1,1-4.1,0-8.2,0-12.3,0Z" transform="translate(-7136.5 -7137.5)"/><path class="cls-2" d="M7182.38,7194.16h-12.13c-1,0-1.07,0-1.07-1.1q0-3.9,0-7.8c0-1.13,0-1.14,1.1-1.14q12.13,0,24.27,0c.74,0,1.05.19,1,1q-.05,4,0,8c0,.82-.29,1.05-1.08,1-4,0-8.09,0-12.13,0Z" transform="translate(-7136.5 -7137.5)"/><path class="cls-2" d="M7190.23,7182.14c-5.54.06-9.72-1.93-12.73-6.13-3.51-4.9.38-11.54,5.27-12.24,2.85-.41,5.38.59,7.77,2a15.32,15.32,0,0,1,6.29,8.09,22.94,22.94,0,0,1,1.28,4.64,2.08,2.08,0,0,1-1.61,2.63A21.42,21.42,0,0,1,7190.23,7182.14Zm-.18-3.3a10.58,10.58,0,0,0,3.54-.48c.62-.23.79-.44.34-1.07a17.19,17.19,0,0,0-8.85-6.35,7.42,7.42,0,0,0-2.85-.41,2,2,0,0,0-1.94,2,3.16,3.16,0,0,0,.95,2.39A12.37,12.37,0,0,0,7190,7178.84Z" transform="translate(-7136.5 -7137.5)"/><path class="cls-2" d="M7208.53,7182.12a22.29,22.29,0,0,1-6.92-1,2,2,0,0,1-1.56-2.37c.66-3.86,1.91-7.51,4.6-10.44a13,13,0,0,1,9.64-4.61,7.69,7.69,0,0,1,7.17,5.27c1.27,3.3.26,6.66-2.72,9.29A14.32,14.32,0,0,1,7208.53,7182.12Zm-.81-3.3a7.55,7.55,0,0,0,2.08-.18,11.89,11.89,0,0,0,7.22-3.85,2.77,2.77,0,0,0,.64-3.18c-.45-.95-1.43-1.34-3-1a16.37,16.37,0,0,0-10.55,6.88c-.31.45-.18.65.26.83A9,9,0,0,0,7207.72,7178.82Z" transform="translate(-7136.5 -7137.5)"/></svg>