<svg id="Layer_1" data-name="Layer 1" xmlns="http://www.w3.org/2000/svg" viewBox="0 0 107.25 119.72"><defs><style>.cls-1{fill:#fff;}</style></defs><title>new-uber-milyaran-side</title><path class="cls-1" d="M109.91,92.43v28.28c0,2,0,2-2,2H71.22c-2,0-2,0-2-2V64.18c0-1.9,0-1.94,1.92-1.94h36.72c2.08,0,2.08,0,2.08,2Q109.91,78.22,109.91,92.43Z" transform="translate(-9.23 -3)"/><path class="cls-1" d="M15.73,92.43V64.3c0-2,0-2,2.08-2H54.23c1.78,0,1.88,0,1.88,1.78v56.87c0,1.48-.52,1.78-1.92,1.78H17.49c-1.51,0-1.78-.53-1.78-1.92C15.77,111.31,15.73,101.84,15.73,92.43Z" transform="translate(-9.23 -3)"/><path class="cls-1" d="M92.76,57.19H71.34c-2.06,0-2.11,0-2.11-2v-14c0-1.32.34-1.78,1.78-1.78h43.84c1.26,0,1.65.44,1.63,1.67V55.5c0,1.39-.5,1.78-1.78,1.78H92.85Z" transform="translate(-9.23 -3)"/><path class="cls-1" d="M32.69,57.17H11.13c-1.78,0-1.9,0-1.9-2V41.36c0-2,0-2,2-2H54.32c1.32,0,1.87.34,1.78,1.78q-.09,7.11,0,14.22c0,1.46-.52,1.87-1.92,1.78H32.62Z" transform="translate(-9.23 -3)"/><path class="cls-1" d="M46.64,35.81c-9.85.11-17.27-3.43-22.62-10.89-6.24-8.71.68-20.51,9.37-21.75,5.07-.73,9.56,1,13.81,3.55A27.23,27.23,0,0,1,58.37,21.1a40.79,40.79,0,0,1,2.27,8.25,3.7,3.7,0,0,1-2.51,4.59l-.36.09A38.07,38.07,0,0,1,46.64,35.81Zm-.32-5.86a18.8,18.8,0,0,0,6.29-.85c1.1-.41,1.4-.78.6-1.9A30.55,30.55,0,0,0,37.48,15.91a13.19,13.19,0,0,0-5.07-.73A3.55,3.55,0,0,0,29,18.73,5.62,5.62,0,0,0,30.66,23a22,22,0,0,0,15.57,7Z" transform="translate(-9.23 -3)"/><path class="cls-1" d="M79.16,35.78A39.62,39.62,0,0,1,66.86,34a3.55,3.55,0,0,1-2.78-4.19v0c1.17-6.86,3.39-13.35,8.18-18.55A23.11,23.11,0,0,1,89.4,3a13.67,13.67,0,0,1,12.74,9.37c2.26,5.86.46,11.84-4.83,16.51A25.45,25.45,0,0,1,79.16,35.78Zm-1.44-5.86a13.4,13.4,0,0,0,3.7-.32,21.13,21.13,0,0,0,12.83-6.84,4.92,4.92,0,0,0,1.14-5.65c-.8-1.69-2.54-2.38-5.33-1.78A29.09,29.09,0,0,0,71.31,27.55c-.55.8-.32,1.16.46,1.48a16,16,0,0,0,6,.89Z" transform="translate(-9.23 -3)"/></svg>