<svg id="Layer_1" data-name="Layer 1" xmlns="http://www.w3.org/2000/svg" viewBox="0 0 55.52 56.41"><defs><style>.cls-1{fill:#a6a6a6;fill-rule:evenodd;}</style></defs><title>new-signup</title><path class="cls-1" d="M244.26,249.63q0,13.52,0,27c0,1.13,0,1.13,1.09,1.13h31.45c1.08,0,1.09,0,1.09-1.07,0-1.35,0-2.7,0-4,0-.78-.26-1-1-1-6.44,0-12.88,0-19.32,0-2.12,0-4.25,0-6.37,0-.66,0-.92-.16-.92-.87q0-21.2,0-42.39c0-1,0-1,1-1h26c.38,0,.54-.19.54-.56q0-2.47,0-4.94c0-.62-.45-.56-.84-.56H245.37c-1.11,0-1.11,0-1.11,1.12Z" transform="translate(-244.26 -221.39)"/><path class="cls-1" d="M287,252.93H261.79c-1.17,0-1.17,0-1.18-1.2q0-2.14,0-4.28c0-1.19,0-1.2,1.18-1.2H286.9c.08-.4-.22-.52-.4-.69-3.31-3.33-6.62-6.65-10-9.95-.54-.53-.57-.86,0-1.38,1.18-1.11,2.32-2.26,3.44-3.43.48-.51.81-.55,1.34,0q9,9,18.05,18c.55.55.58.87,0,1.43q-9,9-18,18c-.58.58-.93.64-1.51,0-1.06-1.15-2.18-2.25-3.31-3.32-.54-.5-.58-.84,0-1.38,3.31-3.26,6.57-6.55,9.85-9.83A1.65,1.65,0,0,0,287,252.93Z" transform="translate(-244.26 -221.39)"/></svg>