<svg id="Layer_1" data-name="Layer 1" xmlns="http://www.w3.org/2000/svg" viewBox="0 0 55.41 54.51"><defs><style>.cls-1{fill:#a6a6a6;fill-rule:evenodd;}</style></defs><title>new-share-socmed</title><path class="cls-1" d="M289.79,241.77a7.4,7.4,0,0,1-4.77-1.29,3.9,3.9,0,0,0-4.61-.23c-4.83,2.46-9.74,4.74-14.61,7.11-1.06.52-2.17,1-2.14,2.5s1.23,1.86,2.28,2.37c4.86,2.38,9.75,4.73,14.57,7.19a3.94,3.94,0,0,0,4.35-.12,9.58,9.58,0,0,1,13.8,12.08A9.86,9.86,0,0,1,289.1,277a9.37,9.37,0,0,1-8.59-8.05,5.5,5.5,0,0,0-3.58-4.53c-4.64-2.16-9.22-4.46-13.79-6.78a3.68,3.68,0,0,0-4.07,0c-4.56,2.74-9.45,2-12.53-1.72a9.45,9.45,0,0,1,0-12.46c3.1-3.7,8-4.5,12.54-1.84a3.85,3.85,0,0,0,4.11.08c4.59-2.28,9.18-4.56,13.85-6.66a5.47,5.47,0,0,0,3.53-4.56,9.49,9.49,0,0,1,9.27-8,9.88,9.88,0,0,1,9.57,7.76C300.7,236.15,296,241.82,289.79,241.77Z" transform="translate(-244.17 -222.58)"/></svg>